<svg width="16" height="16" viewBox="0 0 16 16" fill="none" xmlns="http://www.w3.org/2000/svg">
<path fill-rule="evenodd" clip-rule="evenodd" d="M7.97112 14.9999C8.60592 14.9938 9.40664 14.4941 10.1082 13.1846C10.4161 12.6098 10.6773 11.9222 10.8714 11.1502C10.0305 11.0533 9.12753 11 8.18368 11C7.07486 11 6.02243 11.0735 5.06088 11.2049C5.25345 11.9547 5.50956 12.6234 5.8102 13.1846C6.50548 14.4825 7.29823 14.9848 7.93029 14.9997L7.97112 14.9999ZM4.85408 10.224C4.73763 9.5285 4.67346 8.78168 4.67346 8C4.67346 7.23231 4.73535 6.49825 4.84788 5.81341C5.80271 5.93448 6.82985 6.00034 7.89971 6.00034C9.0132 6.00034 10.0804 5.929 11.068 5.79832C11.1821 6.48746 11.2449 7.22667 11.2449 8C11.2449 8.76038 11.1842 9.48778 11.0737 10.167C10.165 10.0587 9.19335 10 8.18368 10C7.00929 10 5.88638 10.0794 4.85408 10.224ZM11.8669 11.2897C11.5452 12.6191 11.0346 13.7551 10.3988 14.5782C11.8534 14.0476 13.0825 13.0484 13.9034 11.7632C13.3011 11.5749 12.6161 11.4143 11.8669 11.2897ZM14.3873 10.8683C13.7006 10.6417 12.9179 10.4522 12.0637 10.3087C12.1816 9.57771 12.2449 8.80266 12.2449 8C12.2449 7.17971 12.1788 6.38825 12.0559 5.64319C12.9048 5.48783 13.6776 5.28637 14.3489 5.04796C14.7667 5.94496 15 6.94524 15 8C15 9.02205 14.781 9.99295 14.3873 10.8683ZM14.8614 12.1158C13.9533 13.6265 12.5603 14.8127 10.8978 15.459C9.99927 15.8084 9.02202 16 8 16C7.9912 16 7.9824 16 7.97361 16H7.97342L7.95918 16C7.94346 16 7.92775 15.9998 7.91207 15.9995C6.95443 15.9892 6.03716 15.8106 5.18841 15.492C5.10063 15.459 5.01359 15.4246 4.92731 15.3886C3.39017 14.7487 2.09556 13.643 1.21964 12.2478C1.04299 11.9664 0.883361 11.6732 0.742212 11.3697C0.742023 11.3693 0.741834 11.3689 0.741646 11.3685C0.265704 10.3447 0 9.20339 0 8C0 3.61107 3.5343 0.047617 7.91207 0.000473242C7.92775 0.00015802 7.94346 0 7.95918 0L7.97342 4.32284e-05L8 0C12.4183 0 16 3.58172 16 8C16 9.14794 15.7582 10.2394 15.3228 11.2263C15.1952 11.5154 15.051 11.7955 14.8914 12.0655C14.8815 12.0823 14.8715 12.0991 14.8614 12.1158ZM1.66321 10.978C1.23781 10.0743 1 9.06493 1 8C1 6.96865 1.22305 5.98939 1.62353 5.10783C2.2846 5.3307 3.03729 5.51879 3.85906 5.66397C3.73838 6.40295 3.67346 7.18733 3.67346 8C3.67346 8.83144 3.74141 9.63325 3.86751 10.3871C3.05151 10.5438 2.30895 10.7436 1.66321 10.978ZM2.1612 11.8625C2.72143 11.6695 3.3635 11.5016 4.07027 11.3665C4.38721 12.6401 4.87842 13.7319 5.48672 14.5353C4.11955 14.0092 2.95919 13.0664 2.1612 11.8625ZM7.89971 5.00034C8.94752 5.00034 9.94498 4.9347 10.863 4.8166C10.6698 4.05803 10.4117 3.38193 10.1082 2.81537C9.40664 1.50588 8.60592 1.00625 7.97112 1.00006L7.93029 1.00034C7.29823 1.01518 6.50548 1.5175 5.8102 2.81537C5.50475 3.38553 5.24528 4.06664 5.0517 4.8311C5.93772 4.94006 6.8956 5.00034 7.89971 5.00034ZM11.8554 4.66325C12.5958 4.52864 13.2684 4.35835 13.8543 4.16095C13.0338 2.91232 11.8246 1.94191 10.3988 1.42184C11.027 2.23519 11.5331 3.35405 11.8554 4.66325ZM5.48671 1.46473C4.87045 2.27859 4.37437 3.38854 4.05791 4.68359C3.34184 4.55811 2.68712 4.39946 2.11042 4.21519C2.90958 2.97419 4.09027 2.00211 5.48671 1.46473Z" fill="white"/>
</svg>
